<svg id="Capa_1" data-name="Capa 1" xmlns="http://www.w3.org/2000/svg" viewBox="0 0 168.6 167.53"><defs><style>.cls-1,.cls-2{fill:#1d1d1b;}.cls-2{fill-rule:evenodd;}</style></defs><path class="cls-1" d="M123.83,84.09a4.93,4.93,0,0,1-.42-.66,9.49,9.49,0,0,0-2.6-3,18.08,18.08,0,0,1-2.25-1.92,23.77,23.77,0,0,0-3.64-3.31,6.86,6.86,0,0,0-1.47-1,12.14,12.14,0,0,1-3.53-2.47,1.23,1.23,0,0,1-.43-.65c-.31-1.5-1.47-2.4-2.45-3.37a31.85,31.85,0,0,1-2.56-2.89,5.33,5.33,0,0,1-1.06-.75c-.55-.5-1-1.15-1.52-1.62s-1.1-1.14-1.7-1.59a4.87,4.87,0,0,0-1.71-.57,7.8,7.8,0,0,1-2-.82,3.69,3.69,0,0,0-1.75-.72,1.33,1.33,0,0,1-.47-.07,8.19,8.19,0,0,1-1.78-.05,22.13,22.13,0,0,0-3.82-.19c-1.16.11-2.35.06-3.51.16a9.64,9.64,0,0,0-1.67.39,41.3,41.3,0,0,0-4.24,1.26,20.27,20.27,0,0,0-3.34,1.86c-1.15.76-2.24,1.61-3.33,2.44-1.71,1.3-3.46,2.57-3.71,5-.6-.38-.92-.14-1.25.37a12.27,12.27,0,0,1-1.42,1.56c-1.45,1.5-2.92,3-4.36,4.48-.84.87-1.62,1.79-2.49,2.63a13.79,13.79,0,0,0-3.4,4.19,3.36,3.36,0,0,1-.71,1,25.12,25.12,0,0,0-2.54,3.6,15.56,15.56,0,0,0-1.31,2.36,2.62,2.62,0,0,0-.14,2.42c.25.45.58.59.94.24a7.09,7.09,0,0,0,.76-1c-.23-.75-.82-.26-1.28-.48.22-.2.38-.31.5-.44a2.22,2.22,0,0,0,.37-.44c.36-.58.74-.68,1.31-.31.74.47,1.47,1,2.19,1.45A20.08,20.08,0,0,0,61,93.42a32.06,32.06,0,0,0,3.94.85A1.37,1.37,0,0,1,66,95c.37.8.46.78,1.33.64a2.8,2.8,0,0,1,1.83,0A1.56,1.56,0,0,1,68.58,97c-.85.89-1.73,1.78-2.54,2.72a19.36,19.36,0,0,0-1.4,2,.88.88,0,0,0,.26,1.23.75.75,0,0,0,1-.49c.09-.4.36-.42.58-.58,1-.66,2-1.23,2.4-2.43,0-.06.06-.15.11-.16.82-.18,1.14-.81,1.44-1.49a.57.57,0,0,1,.38-.31c1-.21,1.19-1,1.27-2,.4,0,.79,0,1.17.07s.58.14.88.16a6.7,6.7,0,0,1,1.68,0,9.2,9.2,0,0,0,3.17.34c.2,0,.4,0,.6,0,1.3,0,2.58.56,3.87,0a.5.5,0,0,1,.21,0c1.25.09,2.5.58,3.76,0a.46.46,0,0,1,.2,0,13.27,13.27,0,0,0,1.78.19c1.8-.06,3.61.42,5.39-.21a1.45,1.45,0,0,1,.5,0,14.71,14.71,0,0,0,3.38.08,6.17,6.17,0,0,1,1.21-.09,1.37,1.37,0,0,1,.75.18,11.76,11.76,0,0,1,3,3.17,1.19,1.19,0,0,0,1.79.33.8.8,0,0,0,.2-1.21c-.49-.76-1-1.52-1.52-2.25s-.38-1.15.38-1.43a2.69,2.69,0,0,1,.7-.11,7.13,7.13,0,0,0,3-.72,2.3,2.3,0,0,1,.59-.13c.42-.09.84-.15,1.25-.27a6,6,0,0,1,.93-.37,10.86,10.86,0,0,0,3.33-1.14c1.41-.7,2.86-1.32,4.26-2a9,9,0,0,0,1.58-1.07c1.18-1,2.32-1.94,3.49-2.89A1.43,1.43,0,0,0,123.83,84.09ZM70.55,70.52a6.76,6.76,0,0,1,1-1.54,29.84,29.84,0,0,1,3.11-3.15c1.19-1,2.57-1.68,3.85-2.53.83-.55,1.62-1.16,2.45-1.72a1.84,1.84,0,0,1,.72-.3c.66-.12,1.33-.17,2-.27a11.58,11.58,0,0,0,1.76-.31,2.94,2.94,0,0,1,1.38-.16h.1a8.77,8.77,0,0,1,2.55-.4,16.1,16.1,0,0,1,7.33,1.67,20.36,20.36,0,0,1,3.12,2c.88.64,1.88,1.17,2.72,1.87a12.07,12.07,0,0,1,2.23,2.89c.27.44.62.84.87,1.28.09.18.27.68.47.77a1.17,1.17,0,0,1,.56.51h0s0,0,0,0a1.07,1.07,0,0,1,.1.39,1,1,0,0,0,.52.59c.41.2.17,1-.39,1.19a32.3,32.3,0,0,1-3.57,1,37.72,37.72,0,0,1-4.48.63c-1.77.14-3.56.15-5.35.21-1.4,0-2.8.1-4.2.13-.4,0-.8-.08-1.21-.1a18,18,0,0,0-2.2-.12,39.34,39.34,0,0,1-7-.2c-.83-.09-1.68-.08-2.51-.14a2.07,2.07,0,0,1-.58-.15c-.72-.27-1.45-.52-2.14-.85-.29-.14-.48-.46-.86-.83-1.12.2-1.73-.8-2.37-1.7A.91.91,0,0,1,70.55,70.52Zm-6.8,5.1s.2.08.39.18c-.14.13-.22.25-.3.25s-.23-.06-.35-.1C63.58,75.84,63.64,75.69,63.75,75.62Zm56.48,9.93c-.29.18-.68.29-.84.54a.69.69,0,0,1-.78.38,1.26,1.26,0,0,1-.57.22,11.67,11.67,0,0,1-5.32,2,12.92,12.92,0,0,0-2.74.61,19.1,19.1,0,0,0-1.73.92,1.15,1.15,0,0,1-.9.34,5.89,5.89,0,0,1-1.67.16,2.13,2.13,0,0,1-1.49,0,.46.46,0,0,0-.38.06,2.08,2.08,0,0,1-2.17.22l-1.78.58c-.44.15-.88.32-1.34.49,0-.19-.06-.3-.08-.42-.53,0-1.06,0-1.59,0a2,2,0,0,0-.93.28,4.26,4.26,0,0,1-3.09.6,4.1,4.1,0,0,0-1,0c-1.2.09-2.41.28-3.61.27-1.51,0-3-.19-4.51-.26-.81,0-1.62.08-2.42,0a14.5,14.5,0,0,0-2.79.1,7.88,7.88,0,0,1-1.6-.08L71.1,92a6.82,6.82,0,0,1-1.29-.22,9.66,9.66,0,0,0-3.37-.52A7.14,7.14,0,0,1,65.26,91c-1.3-.16-2.61-.24-3.9-.46a23.15,23.15,0,0,1-3.42-.79,1.87,1.87,0,0,1-1.49-1.87c0-.1,0-.2,0-.33-.62,0-1.15.63-1.86.22.17-.44.62-.92-.12-1.25.24-.17.42-.28.58-.42.36-.32.05-1,.71-1.22a2.19,2.19,0,0,0,.93-1.05.88.88,0,0,1,.5-.48,3.31,3.31,0,0,0,.83-.68l-.84.22c0-.06,0-.13,0-.19l.87,0c.53-.37.92-.78.63-1.44a15.26,15.26,0,0,0,1.47-.92,1.23,1.23,0,0,0,.47-.83c-.11-.73.35-1,.84-1.32v0c.23-.38.49-.68.93-.26.29-.37.56-.74,1.1-.77a.47.47,0,0,0,.28-.12c.85-1.11,2.38-1.3,3.27-2.39.24-.3.76-.38,1.16-.54a3.62,3.62,0,0,1,1-.3A1.26,1.26,0,0,1,70,74c.17.15.1.56.14.85l1.64.55c.22.08.44.25.66.24a5.35,5.35,0,0,1,2.61.93,14.26,14.26,0,0,0,3,1c2.07.09,4.14.49,6.21.66,1.85.14,3.65.2,5.51.17,3.93-.06,7.61,0,11.45-1,1.64-.43,3.22-1,4.85-1.44a6,6,0,0,1,4.42.36,10.85,10.85,0,0,1,4.74,3.55h0a10.27,10.27,0,0,1,1.35.85c1,1,2.52,1.5,3.27,2.84.09.15.31.23.46.36.32.28.62.57,1,1Z"/><path class="cls-2" d="M88.76,56.83c-.63.66-1.7,1-1.3,2.23h-.71a2.27,2.27,0,0,1,.76-2.65,1.45,1.45,0,0,1,1-.39,6.27,6.27,0,0,1,2.9,1,1.59,1.59,0,0,1,.44.94c0,.44-.28.73-.81.81A2.57,2.57,0,0,0,88.76,56.83Z"/><path class="cls-2" d="M90,58.45l-1.3,0c-.12-.47,0-.77.46-.86S89.82,57.89,90,58.45Z"/><path class="cls-2" d="M112.29,81.41c.07.72.19,1.42.21,2.11a1.33,1.33,0,0,1-1,1.3l-1.94.82a3.65,3.65,0,0,1-2.66.07c-.09,0-.23,0-.28-.11a8.08,8.08,0,0,1-1.06-1.67,1.68,1.68,0,0,1,.34-1.61A13.73,13.73,0,0,1,107,81a2.44,2.44,0,0,1,.9-.37c.12,0,.29.05.39,0,1-.53,1.89-.06,2.78.34C111.41,81.1,111.79,81.22,112.29,81.41Zm-4.19,1.13-.26,1a2.91,2.91,0,0,0,2.61-.47A3.61,3.61,0,0,0,108.1,82.54Z"/><path class="cls-2" d="M66.77,79.66c.17.06.46.14.73.25a4.53,4.53,0,0,1,2.09,1.8.94.94,0,0,1,.12,1.19c-.18.26-.06.72,0,1.08.07,1.1-.29,1.41-1.33,1.23-.62-.11-1.26-.08-1.89-.15a4.46,4.46,0,0,1-2.91-1.37,1.28,1.28,0,0,1-.3-1.4c.5-1.24,1.15-2.36,2.7-2.49A8.41,8.41,0,0,0,66.77,79.66Zm-2.38,3.16c1,0,1.78.88,2.8.25L66.76,82l1.3.26c-.2-.35-.26-.59-.4-.66a1.49,1.49,0,0,0-.78-.12c-.82.08-1.62.22-2.44.33C64.42,82.16,64.41,82.45,64.39,82.82ZM68,83.6s-.08-.1-.12-.1-.09.07-.12.11.08.09.12.09S68,83.63,68,83.6Z"/><path class="cls-2" d="M88.2,84.35c.07,1.3-.3,1.83-1.27,2.16-.61.2-1.22.38-1.81.61a1.53,1.53,0,0,1-1.34.15A3.66,3.66,0,0,1,82.26,86a1.33,1.33,0,0,1-.1-.28c-.12-.3-.42-.66-.33-.87a2.8,2.8,0,0,1,.86-1.07,3.06,3.06,0,0,1,1.13-.41c.55-.15,1.12-.24,1.66-.4a2.74,2.74,0,0,1,1.87.17A1.23,1.23,0,0,1,88.2,84.35Zm-1.92.49c-.91-.49-1.7.19-2.66.16A2.57,2.57,0,0,0,86.28,84.84Z"/></svg>