<svg id="Capa_1" data-name="Capa 1" xmlns="http://www.w3.org/2000/svg" viewBox="0 0 168.6 167.53"><defs><style>.cls-1{fill:#2e2b33;fill-rule:evenodd;}</style></defs><path class="cls-1" d="M103.4,77.77c.64-.1,2-.27,3.38-.52a12.45,12.45,0,0,1,9,1.82c2.53,1.48,3,3.32,1.81,6a10.4,10.4,0,0,0-.68,1.44,4.5,4.5,0,0,1-4,3.64c-3.67.59-6.23,3.34-9.39,4.92a1.84,1.84,0,0,0-.79,1c-1.34,3.78-4.4,5.76-7.71,7.48a37.84,37.84,0,0,1-14.28,3.87c-4.93.45-9.23-1.69-13-4.81-2.18-1.77-4.23-3.69-6.44-5.4a4.74,4.74,0,0,0-2.63-.8c-5.27-.16-9.89-1.78-13.44-5.87-1.67-1.91-1.67-3.73-.25-5.91a12.69,12.69,0,0,1,6-5.13c2.27-.93,4.23-2.47,6.87-2.4A3.09,3.09,0,0,0,59.6,76a18.74,18.74,0,0,1,6.59-4.57A12.08,12.08,0,0,0,70,68.56a8.13,8.13,0,0,1,4.4-2.46c5.86-1.23,11.36,0,16.76,2.21A20.34,20.34,0,0,1,96.6,71,91.18,91.18,0,0,1,103.4,77.77ZM99.56,91.46c.52-2.93,1-5.66,0-8.44a12.76,12.76,0,0,1-.83-3.76c0-2.47-1.47-3.75-3.35-4.71-2.89-1.46-5.83-2.77-8.76-4.14-3.26-1.53-7.83-.82-11.23.43-2.57.75-3.48,1.63-5.24,2.61-3.65,1.29-5.68,2.21-7.35,5.76A13.58,13.58,0,0,0,60.7,82.6c-1.15,2.06-.54,3.55.08,5,.37.89,1,1.66,1.41,2.55.72,1.84,2.11,2.51,4,2.7,2.56.28,5.11.86,7.66,1.11a14,14,0,0,0,4.43-.13,37.59,37.59,0,0,1,12.16-1.07A17.17,17.17,0,0,0,99.56,91.46ZM68.71,97.18c-.1.26-.2.5-.3.77,3.19,2.8,6.32,5.73,11.11,5.44A43.58,43.58,0,0,0,96,99.16c1-.49,1.86-1,1.37-2.67a46.8,46.8,0,0,1-6.81-.08,38.6,38.6,0,0,0-12.08,1c-2.63.16-4.31.57-6.83-.32A4.08,4.08,0,0,0,68.71,97.18Zm35.28-7c3-1.15,5.1-1.65,7.62-2.74a8.37,8.37,0,0,0,2.71-2c1.27-1.85.62-3.84-1.47-4.46a18.51,18.51,0,0,0-9.54-.57C103.65,83.46,103.67,87.22,104,90.17Zm-48.31-7.9C53,82.29,51,83.73,49,85c-1.21.8-1,3.59.36,4.34,2.3,1.32,4.53,1.85,7,2.94.22.08.62-.32,1-.46C56.81,88.77,56.23,85.36,55.68,82.27Z"/><path class="cls-1" d="M105,68.32c-4.9,0-8.06-2-10-6a4.84,4.84,0,0,1,.83-5.43,6.08,6.08,0,0,1,5.79-2.18c3.46.5,7.54,4.42,8.11,7.89S108.55,68,105,68.32ZM98,60.24c-.31,2.07,3.48,5.46,6.29,5.58,2.14-.29,3.72-2.72,2.62-4.57-.53-.9-1.52-2.61-2.3-3a7.43,7.43,0,0,0-4.42,0C98.73,58.71,98.1,59.29,98,60.24Z"/></svg>