<svg id="Capa_1" data-name="Capa 1" xmlns="http://www.w3.org/2000/svg" viewBox="0 0 306.32 67.26"><defs><style>.cls-1,.cls-2{fill:#2e3640;}.cls-1{fill-rule:evenodd;}.cls-2{font-size:23.07px;font-family:Montserrat-Bold, Montserrat;font-weight:700;}.cls-3{letter-spacing:0.01em;}.cls-4{letter-spacing:-0.01em;}</style></defs><path class="cls-1" d="M83.07,29c.64-.1,2-.27,3.38-.52a12.43,12.43,0,0,1,9,1.82c2.54,1.48,3,3.32,1.81,6a10.32,10.32,0,0,0-.67,1.44,4.53,4.53,0,0,1-4,3.65c-3.67.58-6.22,3.33-9.38,4.91a1.86,1.86,0,0,0-.8,1C81,51.1,78,53.08,74.63,54.8a37.56,37.56,0,0,1-14.27,3.87c-4.94.45-9.23-1.69-13-4.81-2.18-1.77-4.22-3.68-6.44-5.4a4.69,4.69,0,0,0-2.62-.8c-5.28-.15-9.89-1.78-13.44-5.87-1.68-1.91-1.68-3.72-.26-5.91a12.71,12.71,0,0,1,6-5.13c2.26-.93,4.22-2.47,6.86-2.39a3,3,0,0,0,1.84-1.13,18.78,18.78,0,0,1,6.6-4.57,12.08,12.08,0,0,0,3.79-2.88,8.06,8.06,0,0,1,4.39-2.45c5.87-1.24,11.37,0,16.76,2.2a20.48,20.48,0,0,1,5.46,2.71A87.52,87.52,0,0,1,83.07,29Zm-3.84,13.7c.53-2.93,1-5.66,0-8.45a12.69,12.69,0,0,1-.83-3.76c0-2.47-1.47-3.74-3.34-4.71-2.89-1.45-5.84-2.76-8.76-4.14-3.27-1.53-7.83-.82-11.23.43-2.57.75-3.48,1.64-5.24,2.61-3.66,1.29-5.69,2.21-7.36,5.77a13.84,13.84,0,0,0-2.15,3.38c-1.15,2.06-.54,3.56.09,5,.37.89,1,1.66,1.4,2.56.73,1.83,2.12,2.51,4,2.69,2.55.29,5.11.86,7.66,1.11A13.68,13.68,0,0,0,58,45.08,37.57,37.57,0,0,1,70.12,44,17.22,17.22,0,0,0,79.23,42.69ZM48.39,48.4c-.1.26-.2.5-.31.77,3.2,2.8,6.33,5.73,11.11,5.45A43.82,43.82,0,0,0,75.7,50.38c1-.49,1.86-1,1.37-2.67a46.93,46.93,0,0,1-6.82-.08,38.83,38.83,0,0,0-12.07,1c-2.64.16-4.31.57-6.83-.31A4,4,0,0,0,48.39,48.4Zm35.27-7c3-1.14,5.11-1.65,7.63-2.73a8.26,8.26,0,0,0,2.7-2c1.27-1.85.63-3.83-1.47-4.46A18.47,18.47,0,0,0,83,31.61C83.32,34.68,83.34,38.44,83.66,41.39Zm-48.31-7.9c-2.7,0-4.63,1.46-6.66,2.72-1.22.8-1,3.59.35,4.35,2.3,1.31,4.54,1.85,7,2.93.22.08.63-.32,1-.45C36.48,40,35.91,36.58,35.35,33.49Z"/><path class="cls-1" d="M84.71,19.55c-4.9,0-8.06-2-10-6a4.83,4.83,0,0,1,.83-5.44A6.08,6.08,0,0,1,81.36,6c3.47.51,7.54,4.42,8.12,7.89S88.23,19.21,84.71,19.55Zm-7.07-8.09c-.3,2.07,3.49,5.46,6.29,5.58,2.15-.29,3.72-2.72,2.62-4.56-.52-.9-1.52-2.62-2.3-3a7.39,7.39,0,0,0-4.41,0C78.4,9.94,77.78,10.51,77.64,11.46Z"/><text class="cls-2" transform="translate(114.39 43.98)">Pla<tspan class="cls-3" x="38.07" y="0">n</tspan><tspan x="54.15" y="0">etaStudi</tspan><tspan class="cls-4" x="156.51" y="0">o</tspan><tspan x="171.46" y="0">.</tspan></text></svg>